<svg width="38" height="56" viewBox="0 0 38 56" fill="none" xmlns="http://www.w3.org/2000/svg">
<g clip-path="url(#clip0_243_3636)">
<path d="M28.8192 16.179C30.5261 16.3059 32.0975 16.4328 33.6689 16.5597C34.0211 16.5851 34.3733 16.6358 34.6714 16.7627C35.2674 16.9911 35.5654 17.4479 35.6196 18.0823C35.6738 18.9198 35.5112 19.7064 35.1861 20.4678C34.8068 21.3813 34.4004 22.2695 33.9398 23.1324C32.829 25.264 31.6098 27.3449 30.2823 29.3751C27.6542 33.3339 25.0534 37.2674 22.5066 41.2769C21.2874 43.1802 20.285 45.185 19.1471 47.1137C18.0092 49.0677 16.8171 51.0217 15.6792 52.9758C15.056 54.067 13.9994 54.5999 12.8344 54.9298C11.4797 55.3105 10.0709 54.5492 9.63739 53.2803C9.31228 52.316 9.28518 51.3263 9.69158 50.4127C10.4231 48.7632 11.263 47.1644 12.1029 45.5657C12.3738 45.0581 12.8073 44.6521 13.3492 44.3476C14.1619 43.8908 14.5954 44.043 14.8122 44.8805C14.8393 44.9566 14.8393 45.0327 14.8935 45.2358C15.0831 44.982 15.2186 44.8297 15.327 44.6521C17.1422 41.9114 18.7949 39.0691 20.285 36.1508C22.615 31.5829 25.2159 27.1673 27.8168 22.7263C28.1961 22.0665 28.6567 21.4575 29.0631 20.7977C29.1715 20.62 29.2798 20.4678 29.4153 20.2394C28.467 20.1886 27.6001 20.1379 26.7602 20.0871C26.5164 20.0617 26.3809 20.1886 26.2455 20.3916C25.9204 20.8738 25.5952 21.356 25.2701 21.8381C24.5928 22.904 23.5904 23.3861 22.2628 23.2846C21.8835 23.2592 21.4771 23.2592 21.0978 23.1577C20.0682 22.9293 19.5535 22.0665 19.8244 21.1022C19.9057 20.823 20.0412 20.5693 20.1766 20.3155C22.7505 16.0014 25.2972 11.7127 27.8981 7.42394C28.6567 6.18046 29.5237 4.98774 30.3365 3.74426C30.4448 3.56662 30.5532 3.41436 30.6887 3.18596C30.3094 3.16059 30.0384 3.16059 29.7404 3.10983C29.0631 3.00832 28.7109 2.65305 28.6296 2.09474C28.5754 1.66333 28.738 1.38418 29.1715 1.20654C29.4424 1.10504 29.632 0.927396 29.8488 0.775133C30.0926 0.597494 30.4448 0.419854 30.7699 0.419854C32.0704 0.343723 33.3167 0.292969 34.5901 0.292969C35.0507 0.292969 35.5383 0.3691 35.9989 0.470608C36.9472 0.673625 37.3807 1.33343 37.1097 2.19625C36.9743 2.65305 36.7575 3.10983 36.4595 3.51587C35.4029 4.88623 34.4817 6.3581 33.6689 7.9061C32.2872 10.5199 30.797 13.0576 29.1985 15.5446C29.0902 15.7222 28.9818 15.8999 28.8192 16.179Z" fill="black"/>
<path d="M8.74329 26.7866C7.9305 26.8374 7.17189 26.8881 6.38619 26.9135C5.167 26.9896 3.92071 27.0658 2.70153 27.1165C2.4306 27.1419 2.18676 27.1419 1.91583 27.1165C0.859194 27.015 0.263146 26.2283 0.479891 25.264C0.506984 25.1625 0.534078 25.061 0.588264 24.9849C1.80745 21.9904 2.67443 18.9197 3.48722 15.8237C4.40839 12.3978 5.35665 8.97192 6.30491 5.57139C6.49456 4.91159 6.7113 4.25179 6.90096 3.59198C7.17189 2.70378 7.71375 2.1201 8.74329 2.0186C9.82701 1.91709 10.8836 1.73945 11.9674 1.66332C16.8441 1.38417 21.7209 0.876627 26.5706 0.343708C27.7897 0.216822 29.036 0.115314 30.2552 0.0391823C30.6887 0.0138052 31.1222 0.0391823 31.5286 0.140691C32.5581 0.369085 32.9916 1.28266 32.5852 2.17086C32.4497 2.45001 32.2601 2.70378 32.0704 2.95756C31.5827 3.66811 31.0951 4.35329 30.6345 5.06385C29.3882 7.04327 28.169 9.02268 26.8957 10.9767C25.6223 12.9307 24.3218 14.8848 23.0214 16.8388C22.6421 17.3971 22.2628 17.93 21.8835 18.463C21.7751 18.6152 21.6667 18.7929 21.5042 19.0466C21.7751 19.0466 21.9376 19.0466 22.1002 19.0466C24.3489 19.072 26.5977 19.072 28.8463 19.0974C29.0089 19.0974 29.1985 19.1228 29.3611 19.1481C30.3906 19.3512 30.9054 20.2393 30.5261 21.1529C30.3906 21.4828 30.1468 21.7873 29.903 22.0665C28.7921 23.4369 27.6542 24.7818 26.5706 26.1776C26.0558 26.8374 25.5952 27.5733 25.1888 28.3092C22.9943 32.2173 20.8268 36.1 18.6865 40.0334C16.4648 44.0684 14.2974 48.1541 12.1028 52.1891C11.9403 52.4936 11.7506 52.7981 11.4797 53.0519C10.8295 53.6863 9.96248 53.6356 9.28515 53.0519C8.79747 52.6205 8.52654 52.1129 8.49945 51.5039C8.41817 50.3619 8.3098 49.1946 8.33689 48.0272C8.41817 43.8654 8.58073 39.7035 8.66201 35.5417C8.7162 32.7248 8.7162 29.908 8.74329 27.0911C8.79747 27.015 8.77038 26.9135 8.74329 26.7866Z" fill="#58DC4D"/>
</g>
<defs>
<clipPath id="clip0_243_3636">
<rect width="36.8467" height="55.0683" fill="white" transform="translate(0.435669 0.0300293)"/>
</clipPath>
</defs>
</svg>
