<svg width="91" height="25" viewBox="0 0 91 25" fill="none" xmlns="http://www.w3.org/2000/svg">
<path d="M25.0297 14.5349V12.7271C25.0524 12.5211 25.0649 12.3122 25.0649 12.1003C25.0649 11.873 25.0521 11.6512 25.0297 11.4341V0.384615C22.921 0.384615 21.2116 2.06609 21.2116 4.14029V6.88184C20.6921 6.74129 20.1328 6.66633 19.5405 6.66633H7.1669C3.91439 6.66633 1.64269 8.90092 1.64269 12.1003C1.64269 12.9618 1.83685 13.7791 2.18223 14.5141C0.847524 15.108 0.0710449 15.8125 0.0710449 16.5689C0.0710449 18.6843 6.12032 20.3992 13.5825 20.3992C21.0447 20.3992 27.0939 18.6843 27.0939 16.5689C27.0939 15.8214 26.3358 15.1244 25.0297 14.5349V14.5349ZM19.1993 16.2079C17.4765 16.2079 15.9608 15.1869 15.3378 13.6072C15.0384 12.848 14.3101 12.0817 13.3582 12.0817C12.4063 12.0817 11.6782 12.848 11.379 13.6072C10.7558 15.1869 9.24012 16.2079 7.5172 16.2079C5.48277 16.2079 3.7901 14.7562 3.44411 12.8515C3.42551 12.7554 3.41026 12.6583 3.39874 12.56C3.39785 12.5516 3.39727 12.5433 3.39643 12.5349C3.38062 12.3921 3.3713 12.2473 3.3713 12.1003C3.3713 9.86715 4.89667 8.3667 7.1669 8.3667H19.5405C20.1589 8.3667 20.7195 8.48151 21.2116 8.68866V8.72057C22.5288 9.27297 23.3407 10.5075 23.3407 12.1342C23.3407 14.3804 21.4829 16.2079 19.1993 16.2079V16.2079Z" fill="#012343"/>
<path d="M31.0784 8.47727C31.5889 7.47265 32.2842 6.69981 33.1645 6.15856C34.0444 5.61764 35.0267 5.34701 36.111 5.34701C36.975 5.34701 37.7647 5.52491 38.48 5.88031C39.1948 6.23611 39.7565 6.71505 40.1653 7.31795V4.84623C40.1653 2.89459 41.7737 1.31248 43.7577 1.31248H44.1962V18.4709H40.1653V16.6159C39.7882 17.2343 39.2497 17.7289 38.5507 18.0998C37.8512 18.4709 37.038 18.6563 36.111 18.6563C35.0267 18.6563 34.0444 18.3821 33.1645 17.8332C32.2842 17.2848 31.5889 16.504 31.0784 15.4913C30.5675 14.4791 30.3123 13.3081 30.3123 11.9785C30.3123 10.6492 30.5675 9.48229 31.0784 8.47727V8.47727ZM39.3285 9.65979C38.7705 9.08812 38.091 8.80191 37.2896 8.80191C36.4881 8.80191 35.8082 9.08414 35.2506 9.64819C34.6926 10.2126 34.4138 10.9895 34.4138 11.9785C34.4138 12.9679 34.6926 13.7522 35.2506 14.3319C35.8082 14.9116 36.4881 15.2015 37.2896 15.2015C38.091 15.2015 38.7705 14.9157 39.3285 14.3435C39.8862 13.7719 40.1653 12.9911 40.1653 12.0017C40.1653 11.0127 39.8862 10.2319 39.3285 9.65979V9.65979Z" fill="#012343"/>
<path d="M60.555 5.53253L52.3048 24.6154H52.3048C50.2703 24.6154 48.9137 22.5502 49.7497 20.7257L50.9848 18.0304L45.6338 5.53253H50.1362L53.177 13.6248L56.1942 5.53253H60.555V5.53253Z" fill="#012343"/>
<path d="M68.8329 14.761L70.9223 8.00078C71.3754 6.53468 72.75 5.53253 74.3078 5.53253H75.9752L71.3079 18.4709H66.3342L61.667 5.53253H63.4677C64.9604 5.53253 66.2776 6.49283 66.7117 7.8977L68.8329 14.761V14.761Z" fill="#012343"/>
<path d="M90.0004 12.9523H80.878C80.9407 13.7563 81.204 14.3708 81.6677 14.7958C82.131 15.221 82.7008 15.4333 83.3767 15.4333C84.3821 15.4333 85.0816 15.016 85.4745 14.1813H89.7647C89.5444 15.0315 89.1477 15.7967 88.5743 16.4767C88.0005 17.1572 87.2816 17.6905 86.4175 18.0766C85.553 18.4633 84.5866 18.6563 83.518 18.6563C82.2294 18.6563 81.0821 18.386 80.0766 17.8448C79.0707 17.3039 78.2851 16.5311 77.7195 15.5261C77.1537 14.5214 76.8708 13.3465 76.8708 12.0017C76.8708 10.6569 77.1496 9.48229 77.7077 8.47727C78.2652 7.47265 79.0471 6.69982 80.053 6.15856C81.0585 5.61764 82.2135 5.34702 83.518 5.34702C84.791 5.34702 85.9225 5.61009 86.9125 6.13536C87.9024 6.66111 88.6763 7.41068 89.2344 8.38455C89.7919 9.35841 90.071 10.4945 90.071 11.793C90.071 12.164 90.0476 12.5506 90.0004 12.9523V12.9523ZM85.9461 10.7496C85.9461 10.0695 85.7102 9.52862 85.2388 9.12649C84.7674 8.7247 84.1781 8.52367 83.471 8.52367C82.795 8.52367 82.2253 8.71715 81.762 9.1033C81.2983 9.48992 81.0113 10.0388 80.9016 10.7496H85.9461V10.7496Z" fill="#012343"/>
</svg>
