<svg width="34" height="32" viewBox="0 0 34 32" fill="none" xmlns="http://www.w3.org/2000/svg">
<path d="M31.4174 1L18.9166 10.375L21.2412 4.85L31.4174 1Z" fill="#E17726" stroke="#E17726" stroke-width="0.25" stroke-linecap="round" stroke-linejoin="round"/>
<path d="M2.58264 1L14.9722 10.4625L12.7589 4.84999L2.58264 1Z" fill="#E27625" stroke="#E27625" stroke-width="0.25" stroke-linecap="round" stroke-linejoin="round"/>
<path d="M26.9163 22.7374L23.5902 27.8874L30.7123 29.8749L32.7526 22.8499L26.9163 22.7374Z" fill="#E27625" stroke="#E27625" stroke-width="0.25" stroke-linecap="round" stroke-linejoin="round"/>
<path d="M1.25958 22.8499L3.28739 29.8749L10.3972 27.8874L7.08338 22.7374L1.25958 22.8499Z" fill="#E27625" stroke="#E27625" stroke-width="0.25" stroke-linecap="round" stroke-linejoin="round"/>
<path d="M10.0138 14.0375L8.03546 17.0625L15.0834 17.3875L14.8485 9.70001L10.0138 14.0375Z" fill="#E27625" stroke="#E27625" stroke-width="0.25" stroke-linecap="round" stroke-linejoin="round"/>
<path d="M23.9859 14.0376L19.0771 9.61261L18.9164 17.3876L25.9642 17.0626L23.9859 14.0376Z" fill="#E27625" stroke="#E27625" stroke-width="0.25" stroke-linecap="round" stroke-linejoin="round"/>
<path d="M10.3972 27.8874L14.663 25.7999L10.9907 22.8999L10.3972 27.8874Z" fill="#E27625" stroke="#E27625" stroke-width="0.25" stroke-linecap="round" stroke-linejoin="round"/>
<path opacity="0.8" d="M19.337 25.7999L23.5904 27.8874L23.0092 22.8999L19.337 25.7999Z" fill="#E27625" stroke="#E27625" stroke-width="0.25" stroke-linecap="round" stroke-linejoin="round"/>
<path d="M23.5904 27.8876L19.337 25.8001L19.6831 28.6001L19.646 29.7876L23.5904 27.8876Z" fill="#D5BFB2" stroke="#D5BFB2" stroke-width="0.25" stroke-linecap="round" stroke-linejoin="round"/>
<path d="M10.3972 27.8876L14.354 29.7876L14.3292 28.6001L14.663 25.8001L10.3972 27.8876Z" fill="#D5BFB2" stroke="#D5BFB2" stroke-width="0.25" stroke-linecap="round" stroke-linejoin="round"/>
<path d="M14.4281 21.0499L10.8917 20L13.3894 18.8375L14.4281 21.0499Z" fill="#233447" stroke="#233447" stroke-width="0.25" stroke-linecap="round" stroke-linejoin="round"/>
<path d="M19.5718 21.0499L20.6105 18.8375L23.1206 20L19.5718 21.0499Z" fill="#233447" stroke="#233447" stroke-width="0.25" stroke-linecap="round" stroke-linejoin="round"/>
<path d="M10.3972 27.8874L11.0154 22.7374L7.08344 22.8499L10.3972 27.8874Z" fill="#CC6228" stroke="#CC6228" stroke-width="0.25" stroke-linecap="round" stroke-linejoin="round"/>
<path d="M22.9844 22.7374L23.5903 27.8874L26.9164 22.8499L22.9844 22.7374Z" fill="#CC6228" stroke="#CC6228" stroke-width="0.25" stroke-linecap="round" stroke-linejoin="round"/>
<path d="M25.9642 17.0624L18.9164 17.3874L19.5717 21.05L20.6104 18.8374L23.1204 19.9999L25.9642 17.0624Z" fill="#CC6228" stroke="#CC6228" stroke-width="0.25" stroke-linecap="round" stroke-linejoin="round"/>
<path d="M10.8917 19.9999L13.3894 18.8374L14.4281 21.05L15.0834 17.3874L8.03546 17.0624L10.8917 19.9999Z" fill="#CC6228" stroke="#CC6228" stroke-width="0.25" stroke-linecap="round" stroke-linejoin="round"/>
<path d="M8.03564 17.0624L10.9908 22.8999L10.8919 19.9999L8.03564 17.0624Z" fill="#E27525" stroke="#E27525" stroke-width="0.25" stroke-linecap="round" stroke-linejoin="round"/>
<path d="M23.1206 19.9999L23.0093 22.8999L25.9645 17.0624L23.1206 19.9999Z" fill="#E27525" stroke="#E27525" stroke-width="0.25" stroke-linecap="round" stroke-linejoin="round"/>
<path d="M15.0837 17.3874L14.4283 21.05L15.2568 25.3749L15.4423 19.6749L15.0837 17.3874Z" fill="#E27525" stroke="#E27525" stroke-width="0.25" stroke-linecap="round" stroke-linejoin="round"/>
<path d="M18.9166 17.3874L18.5703 19.6625L18.7434 25.3749L19.5719 21.05L18.9166 17.3874Z" fill="#E27525" stroke="#E27525" stroke-width="0.25" stroke-linecap="round" stroke-linejoin="round"/>
<path d="M19.5718 21.05L18.7434 25.375L19.3369 25.8L23.0093 22.9L23.1206 20L19.5718 21.05Z" fill="#F5841F" stroke="#F5841F" stroke-width="0.25" stroke-linecap="round" stroke-linejoin="round"/>
<path d="M10.8917 20L10.9907 22.9L14.663 25.8L15.2565 25.375L14.4281 21.05L10.8917 20Z" fill="#F5841F" stroke="#F5841F" stroke-width="0.25" stroke-linecap="round" stroke-linejoin="round"/>
<path d="M19.6461 29.7875L19.6831 28.6L19.3617 28.3249H14.6384L14.3292 28.6L14.354 29.7875L10.3972 27.8875L11.7821 29.0374L14.5889 31H19.3987L22.2179 29.0374L23.5904 27.8875L19.6461 29.7875Z" fill="#C0AC9D" stroke="#C0AC9D" stroke-width="0.25" stroke-linecap="round" stroke-linejoin="round"/>
<path d="M19.3369 25.7999L18.7433 25.375H15.2565L14.663 25.7999L14.3292 28.6L14.6383 28.325H19.3616L19.6831 28.6L19.3369 25.7999Z" fill="#161616" stroke="#161616" stroke-width="0.25" stroke-linecap="round" stroke-linejoin="round"/>
<path d="M31.949 10.9875L33 5.8125L31.4173 1L19.337 10.0625L23.9861 14.0375L30.5517 15.975L31.9985 14.2625L31.3679 13.8L32.3694 12.875L31.6028 12.275L32.6044 11.5L31.949 10.9875Z" fill="#763E1A" stroke="#763E1A" stroke-width="0.25" stroke-linecap="round" stroke-linejoin="round"/>
<path d="M1 5.8125L2.06337 10.9875L1.38331 11.5L2.39722 12.275L1.6306 12.875L2.63215 13.8L2.00154 14.2625L3.44822 15.975L10.014 14.0375L14.663 10.0625L2.58269 1L1 5.8125Z" fill="#763E1A" stroke="#763E1A" stroke-width="0.25" stroke-linecap="round" stroke-linejoin="round"/>
<path d="M30.5518 15.9749L23.9862 14.0375L25.9645 17.0625L23.0093 22.8999L26.9166 22.85H32.7527L30.5518 15.9749Z" fill="#F5841F" stroke="#F5841F" stroke-width="0.25" stroke-linecap="round" stroke-linejoin="round"/>
<path d="M10.0138 14.0375L3.44814 15.9749L1.25958 22.85H7.08338L10.9906 22.8999L8.03547 17.0625L10.0138 14.0375Z" fill="#F5841F" stroke="#F5841F" stroke-width="0.25" stroke-linecap="round" stroke-linejoin="round"/>
<path d="M18.9164 17.3875L19.3368 10.0624L21.241 4.84998H12.7588L14.6629 10.0624L15.0833 17.3875L15.2441 19.6875L15.2565 25.375H18.7433L18.7557 19.6875L18.9164 17.3875Z" fill="#F5841F" stroke="#F5841F" stroke-width="0.25" stroke-linecap="round" stroke-linejoin="round"/>
</svg>
